<svg width="21" height="22" viewBox="0 0 21 22" fill="none" xmlns="http://www.w3.org/2000/svg">
<path d="M16.9529 9.01834C16.9245 5.52743 19.5335 3.82908 19.6528 3.75001C18.1752 1.36389 15.885 1.03787 15.0802 1.01187C13.1567 0.787664 11.2909 2.28671 10.311 2.28671C9.31161 2.28671 7.80271 1.03353 6.17648 1.07036C4.08378 1.1061 2.12604 2.4481 1.05231 4.53203C-1.1636 8.78114 0.489041 15.0254 2.61205 18.46C3.67404 20.1431 4.91499 22.0202 6.53927 21.9541C8.12835 21.8826 8.72194 20.8331 10.6396 20.8331C12.5396 20.8331 13.097 21.9541 14.7536 21.9119C16.459 21.8826 17.5328 20.2222 18.5576 18.5249C19.7849 16.5981 20.2777 14.6983 20.2973 14.6008C20.2582 14.5856 16.9861 13.2014 16.9529 9.01834Z" fill="white"/>
</svg>
